<svg width="28" height="25" viewBox="0 0 28 25" fill="none" xmlns="http://www.w3.org/2000/svg">
<path d="M5.04116 25L2.26672 13.8197H0.655762V7.50297H6.80128L9.81438 0L11.5447 0.682088L8.80007 7.53262H19.0923L16.3776 0.682088L18.1079 0L21.1209 7.50297H27.2665V13.8197H25.6555L22.8811 25H5.04116ZM21.4491 23.1613L23.776 13.8493H4.17601L6.50296 23.1613H21.4491ZM25.4168 11.981V9.40095H2.53522V11.981H25.4168Z" fill="black"/>
<path d="M14.9157 15.3914H13.0362V22.064H14.9157V15.3914Z" fill="black"/>
<path d="M18.4957 15.3914H16.6162V22.064H18.4957V15.3914Z" fill="black"/>
<path d="M11.3358 15.3914H9.45638V22.064H11.3358V15.3914Z" fill="black"/>
</svg>
