<svg width="16" height="24" viewBox="0 0 16 24" fill="none" xmlns="http://www.w3.org/2000/svg">
<path d="M7.78784 9.28132C5.31118 9.28132 3.28211 7.19149 3.28211 4.64066C3.31195 2.08983 5.31118 0 7.78784 0C10.2645 0 12.2936 2.08983 12.2936 4.64066C12.2936 7.19149 10.2943 9.28132 7.78784 9.28132ZM7.78784 2.08983C6.41524 2.08983 5.31118 3.22695 5.31118 4.64066C5.31118 6.05437 6.41524 7.19149 7.78784 7.19149C9.16045 7.19149 10.2645 6.05437 10.2645 4.64066C10.2645 3.22695 9.16045 2.08983 7.78784 2.08983Z" fill="white"/>
<path d="M13.1888 24V18.2553C13.1888 15.182 10.7718 12.7234 7.81768 12.7234C4.83375 12.7234 2.44661 15.2128 2.44661 18.2553V24H0.387695V18.2553C0.387695 14.0449 3.69986 10.6336 7.78784 10.6336C11.8758 10.6336 15.188 14.0449 15.188 18.2553V24H13.1888Z" fill="white"/>
</svg>
