<svg width="24" height="24" viewBox="0 0 24 24" fill="none" xmlns="http://www.w3.org/2000/svg">
<path fill-rule="evenodd" clip-rule="evenodd" d="M9.22779 18.2186C14.1918 18.2186 18.2158 14.1402 18.2158 9.10931C18.2158 4.07838 14.1918 0 9.22779 0C4.26379 0 0.239746 4.07838 0.239746 9.10931C0.239746 14.1402 4.26379 18.2186 9.22779 18.2186ZM9.22779 16.0752C13.0237 16.0752 16.101 12.9565 16.101 9.10931C16.101 5.26212 13.0237 2.14337 9.22779 2.14337C5.43183 2.14337 2.35458 5.26212 2.35458 9.10931C2.35458 12.9565 5.43183 16.0752 9.22779 16.0752Z" fill="white"/>
<path d="M15.4815 13.9319L23.9202 22.4844L22.4248 24L13.9861 15.4475L15.4815 13.9319Z" fill="white"/>
</svg>
