<svg width="167" height="30" viewBox="0 0 167 30" fill="none" xmlns="http://www.w3.org/2000/svg">
<path d="M21.9039 21.0618L9.92665 0.475436H0V29.6672H7.36343V9.65135L19.2475 29.6672H24.5603L36.4443 9.65135V29.6672H43.8078V0.475436H33.8811L21.9039 21.0618ZM47.3031 29.6197H54.6665V0.475436H47.3031V29.6197ZM78.9472 0.475436H58.2084V29.6672H78.9472C86.3572 29.6672 92.8352 25.0079 92.8352 15.0713C92.8352 5.13471 86.3106 0.475436 78.9472 0.475436ZM65.5718 11.9334C65.5718 12.7417 65.1524 13.4548 64.4999 13.8352C64.2669 13.9778 64.1271 14.2155 64.1271 14.4532V21.4897C64.1271 21.9176 63.8009 22.2029 63.428 22.2029C63.0086 22.2029 62.729 21.87 62.729 21.4897V14.4532C62.729 14.168 62.5892 13.9303 62.3562 13.8352C61.7037 13.4548 61.2843 12.7417 61.2843 11.9334V9.74643C61.2843 8.5103 62.2629 7.55943 63.428 7.55943C64.5931 7.55943 65.5718 8.55784 65.5718 9.74643V11.9334V11.9334ZM74.5664 23.3914C70.0458 23.3914 66.4107 19.683 66.4107 15.0713C66.4107 10.4596 70.0458 6.75119 74.5664 6.75119C79.087 6.75119 82.7221 10.4596 82.7221 15.0713C82.7221 19.6355 79.0404 23.3914 74.5664 23.3914ZM87.9884 12.6466C87.9884 13.0745 87.6621 13.3597 87.2893 13.3597C86.9165 13.3597 86.5902 13.6926 86.5902 14.0729V21.4422C86.5902 21.87 86.264 22.1553 85.8912 22.1553C85.4717 22.1553 85.1921 21.8225 85.1921 21.4422V14.1204C85.1921 13.6926 84.8659 13.4073 84.4931 13.4073C84.0736 13.4073 83.794 13.0745 83.794 12.6941V8.12995C83.794 7.89223 83.9804 7.65452 84.26 7.65452C84.5397 7.65452 84.7261 7.84469 84.7261 8.12995V11.9334H85.5183V8.12995C85.5183 7.89223 85.7048 7.65452 85.9844 7.65452C86.2174 7.65452 86.4504 7.84469 86.4504 8.12995V11.9334H87.2427V8.12995C87.2427 7.89223 87.4291 7.65452 87.7087 7.65452C87.9883 7.65452 88.1748 7.84469 88.1748 8.12995V12.6466H87.9884ZM148.574 12.0285C140.231 11.5055 138.507 11.1252 138.507 8.84311C138.507 6.6561 140.231 5.99049 147.455 5.99049C155.098 5.99049 158.221 6.79873 158.221 9.98415H165.584C165.584 2.75753 159.059 0 148.247 0C137.528 0 131.144 2.04437 131.144 8.46276C131.144 15.0238 136.084 17.0206 148.527 17.5911C157.801 18.0666 159.432 18.4469 159.432 20.8716C159.432 23.1537 157.102 24.0571 149.366 24.0571C140.045 24.0571 137.622 22.6307 137.622 19.5404H130.258C130.258 27.9556 137.249 30 148.946 30C159.525 30 166.749 28.4311 166.749 20.6339C166.842 13.3122 159.852 12.6941 148.574 12.0285ZM105.372 0.475436L90.6448 29.6672H98.7539L101.83 23.439H118.933L122.009 29.6672H130.118L115.298 0.475436H105.372ZM104.486 17.8288L110.312 5.99049L116.091 17.8288H104.486Z" fill="white"/>
</svg>
